<?xml version="1.0" standalone="no"?>
<!DOCTYPE svg PUBLIC "-//W3C//DTD SVG 20010904//EN"
 "http://www.w3.org/TR/2001/REC-SVG-20010904/DTD/svg10.dtd">
<svg version="1.0" xmlns="http://www.w3.org/2000/svg"
 width="512.000000pt" height="512.000000pt" viewBox="0 0 512.000000 512.000000"
 preserveAspectRatio="xMidYMid meet">

<g transform="translate(0.000000,512.000000) scale(0.100000,-0.100000)"
fill="#000000" stroke="none">
<path d="M768 4225 c-180 -46 -325 -199 -358 -377 -7 -37 -10 -501 -8 -1384
l3 -1329 26 -55 c51 -110 131 -170 249 -189 36 -6 203 -11 372 -11 l308 0 2
1003 3 1003 640 -408 c352 -224 645 -407 650 -405 6 1 257 175 558 386 l547
383 0 498 c0 471 1 501 20 563 11 36 36 89 56 118 19 29 38 57 41 62 3 6 -23
-10 -58 -35 -497 -354 -1187 -828 -1199 -825 -13 3 -1218 768 -1443 915 -43
28 -103 60 -134 72 -74 28 -199 35 -275 15z"/>
</g>
</svg>
